<svg 
          width="26" 
          height="26" fill="none" 
          xmlns="http://www.w3.org/2000/svg">
          <path d="M 25.31502914428711 0.43478429317474365 C 25.109529688954353 0.24221505224704742 24.869000911712646 0.1084386296570301 24.612314224243164 0.043951038271188736 C 24.35562753677368 -0.020536553114652634 24.089764952659607 -0.01398119330406189 23.835586547851562 0.0631028339266777 L 14.356197357177734 2.9395933151245117 L 14.356197357177734 26 L 24.712291717529297 22.864948272705078 C 25.082698732614517 22.753098636865616 25.41071891784668 22.498221069574356 25.644081115722656 22.14092254638672 C 25.877443313598633 21.78362402319908 26.002721765311435 21.34446355700493 25.999956130981445 20.893421173095703 L 25.999956130981445 2.018470287322998 C 25.995751224458218 1.710350513458252 25.93184445053339 1.4074499607086182 25.813127517700195 1.1329530477523804 C 25.694410584867 0.8584561347961426 25.52403086423874 0.6196401864290237 25.31502914428711 0.43478429317474365 Z M 11.61648941040039 2.9395933151245117 L 2.1097023487091064 0.0631028339266777 C 1.8594217598438263 -0.005263514816761017 1.5994127094745636 -0.0073914118111133575 1.348352313041687 0.05687275901436806 C 1.0972919166088104 0.12113692983984947 0.8614122569561005 0.25019803643226624 0.6576573252677917 0.43478429317474365 C 0.45002783834934235 0.626283809542656 0.28267213702201843 0.8717391788959503 0.16862384974956512 1.1520347595214844 C 0.054575562477111816 1.4323303401470184 -0.0030868686590110883 1.739900290966034 0.00012736419739667326 2.050790548324585 L 0.00012736419739667326 20.893421173095703 C 0.0004162018158240244 21.341699868440628 0.12709783017635345 21.77713242173195 0.36022132635116577 22.131139755249023 C 0.5933448225259781 22.485147088766098 0.9196648001670837 22.737614296376705 1.2877901792526245 22.848787307739258 L 11.61648941040039 26 L 11.61648941040039 2.9395933151245117 Z" fill="rgb(255,255,255)"/>
        </svg>