<svg 
          width="24" 
          height="21" fill="none" 
          xmlns="http://www.w3.org/2000/svg">
          <path d="M 0 10.558625340461731 C 0 15.778875410556793 4.333000183105469 20.11974996328354 10 21 L 10 13.416375160217285 L 7 13.416375160217285 L 7 10.5 L 10 10.5 L 10 8.166375160217285 C 10 5.541375160217285 11.932999849319458 4.083624839782715 14.666999816894531 4.083624839782715 C 15.532999813556671 4.083624839782715 16.46700018644333 4.200000075623393 17.33300018310547 4.3163750767707825 L 17.33300018310547 7 L 15.800000190734863 7 C 14.333000183105469 7 14 7.641374826431274 14 8.458624839782715 L 14 10.5 L 17.200000762939453 10.5 L 16.66699981689453 13.416375160217285 L 14 13.416375160217285 L 14 21 C 19.66699981689453 20.11974996328354 24 15.779750347137451 24 10.558625340461731 C 24 4.751250267028809 18.59999990463257 0 12 0 C 5.400000095367432 0 0 4.751250267028809 0 10.558625340461731 Z" fill="rgb(0,0,0)"/>
        </svg>