<svg 
          width="26" 
          height="26" fill= "none" 
          xmlns="http://www.w3.org/2000/svg">
          <path d="M 25.461895547871425 12.786984658963979 L 13.648699397836953 0.28473846538015035 C 13.56364134427228 0.19447700039399526 13.462611938813192 0.12286738203593112 13.351391896113409 0.07400832171003989 C 13.240171853413626 0.02514926138414867 13.120945511995123 0 13.000537395510168 0 C 12.880129279025214 0 12.760902937606712 0.02514926138414867 12.64968289490693 0.07400832171003989 C 12.538462852207147 0.12286738203593112 12.43743257151107 0.19447700039399526 12.352374517946398 0.28473846538015035 L 0.5391795713627844 12.786984658963979 C 0.1950223841859488 13.15148163388911 0 13.646589654043582 0 14.162960368520853 C 0 15.235188946584856 0.8231091851408998 16.106944234788223 1.835504888871833 16.106944234788223 L 3.0802070878037746 16.106944234788223 L 3.0802070878037746 25.028008066866317 C 3.0802070878037746 25.56564112805498 3.4903277139752458 26 3.997959586942003 26 L 11.165032397233713 26 L 11.165032397233713 19.19605646806421 L 14.377166144217512 19.19605646806421 L 14.377166144217512 26 L 22.003116516933815 26 C 22.510748389900574 26 22.920869016072043 25.56564112805498 22.920869016072043 25.028008066866317 L 22.920869016072043 16.106944234788223 L 24.16556979274388 16.106944234788223 C 24.653125807911064 16.106944234788223 25.120605637064806 15.9034338061609 25.464762824241642 15.535899344857679 C 26.178888976693113 14.776530647096989 26.178889687823165 13.54635335672467 25.461895547871425 12.786984658963979 L 25.461895547871425 12.786984658963979 Z" fill="rgb(255,255,255)"/>
        </svg>