<svg 
          width="18" 
          height="18.73733139038086" fill="none" 
          xmlns="http://www.w3.org/2000/svg">
          <path d="M 8.99758073160252 6.244447231292725 C 7.344994876546998 6.244447231292725 5.996359073206975 7.648353159427643 5.996359073206975 9.36866569519043 C 5.996359073206975 11.088978230953217 7.344994876546998 12.492884159088135 8.99758073160252 12.492884159088135 C 10.650166586658042 12.492884159088135 11.998803077095026 11.088978230953217 11.998803077095026 9.36866569519043 C 11.998803077095026 7.648353159427643 10.650166586658042 6.244447231292725 8.99758073160252 6.244447231292725 Z M 17.99899546424393 9.36866569519043 C 17.99899546424393 8.074915677309036 18.010253408373103 6.792884409427643 17.940457551607853 5.50147819519043 C 17.870661694842603 4.00147819519043 17.54194569483367 2.670228213071823 16.488253390365433 1.5733532309532166 C 15.432309555045167 0.4741344451904297 14.15571999058219 0.13429084606468678 12.71477322593855 0.061634598299860954 C 11.471956624255988 -0.011021649464964867 10.240396732075242 0.0006971347174840048 8.999831661244707 0.0006971347174840048 C 7.7570150595621445 0.0006971347174840048 6.525456885123801 -0.011021649464964867 5.284891814293266 0.061634598299860954 C 3.8439450496496264 0.13429084606468678 2.56510464143158 0.47647824883461 1.5114123369633428 1.5733532309532166 C 0.45546850164307773 2.6725720167160034 0.12900397343877829 4.00147819519043 0.05920811667353 5.50147819519043 C -0.010587740091718284 6.795228213071823 0.0006696893437862228 8.077259480953217 0.0006696893437862228 9.36866569519043 C 0.0006696893437862228 10.660071909427643 -0.010587740091718284 11.944446980953217 0.05920811667353 13.23585319519043 C 0.12900397343877829 14.73585319519043 0.4577200324951054 16.067102640867233 1.5114123369633428 17.16397762298584 C 2.567356172283608 18.263196408748627 3.8439450496496264 18.603040125221014 5.284891814293266 18.67569637298584 C 6.5277084159758285 18.748352620750666 7.759266590414172 18.736634731292725 8.999831661244707 18.736634731292725 C 10.24264826292727 18.736634731292725 11.474208155108016 18.748352620750666 12.71477322593855 18.67569637298584 C 14.15571999058219 18.603040125221014 15.434561085897196 18.260852605104446 16.488253390365433 17.16397762298584 C 17.544197225685696 16.064758837223053 17.870661694842603 14.73585319519043 17.940457551607853 13.23585319519043 C 18.012504890913625 11.944446980953217 17.99899546424393 10.662415713071823 17.99899546424393 9.36866569519043 L 17.99899546424393 9.36866569519043 Z M 8.99758073160252 14.17569637298584 C 6.442151703679816 14.17569637298584 4.379796852912695 12.02882194519043 4.379796852912695 9.36866569519043 C 4.379796852912695 6.70850944519043 6.442151703679816 4.561634302139282 8.99758073160252 4.561634302139282 C 11.553009759525224 4.561634302139282 13.615364953840825 6.70850944519043 13.615364953840825 9.36866569519043 C 13.615364953840825 12.02882194519043 11.553009759525224 14.17569637298584 8.99758073160252 14.17569637298584 Z M 13.804489766377872 5.487415552139282 C 13.207847746642615 5.487415552139282 12.72603062253733 4.98585319519043 12.72603062253733 4.36475944519043 C 12.72603062253733 3.7436656951904297 13.207847746642615 3.242103338241577 13.804489766377872 3.242103338241577 C 14.401131786113128 3.242103338241577 14.882948910218413 3.7436656951904297 14.882948910218413 4.36475944519043 C 14.883126708173478 4.5122407749295235 14.855351993617555 4.658309765160084 14.801217352587926 4.794600248336792 C 14.747082711558297 4.9308907315135 14.667650642000496 5.054725036025047 14.56747108925023 5.159010171890259 C 14.467291536499964 5.26329530775547 14.34833381706868 5.3459826819598675 14.217408929878548 5.40233588218689 C 14.086484042688417 5.458689082413912 13.946164929666464 5.487600636653951 13.804489766377872 5.487415552139282 L 13.804489766377872 5.487415552139282 Z" fill="rgb(0,0,0)"/>
        </svg>