<svg 
          width="20" 
          height="19.00015640258789" fill="none" 
          xmlns="http://www.w3.org/2000/svg">
          <path d="M 0.6289888589289601 9.916156768798828 L 4.262950279056357 11.427156448364258 L 14.73532815726426 6.000156402587891 L 8.4190567903178 13.00015640258789 L 17.472379484518775 16.916156768798828 C 17.627210268076215 16.980572558939457 17.7960930560235 17.008625101298094 17.96474790155563 16.997941970825195 C 18.133402747087757 16.987258840352297 18.29686988302141 16.9381537809968 18.441326282699467 16.854780197143555 C 18.585782682377523 16.77140661329031 18.70697963785119 16.65621541440487 18.79467050146616 16.51894760131836 C 18.88236136508113 16.38167978823185 18.93396781278192 16.226371988654137 18.94512360160599 16.0661563873291 L 19.997835496097064 1.066156268119812 C 20.00956183117074 0.8925400376319885 19.973498702012968 0.7190152555704117 19.89319638997694 0.5626572370529175 C 19.81289407794091 0.4062992185354233 19.69111852897664 0.2724963277578354 19.539854179098842 0.1744156777858734 C 19.388589829221043 0.07633502781391144 19.21305056116972 0.017356509808450937 19.03050705612209 0.0032838289625942707 C 18.84796355107446 -0.010788851883262396 18.664707967161384 0.02052922546863556 18.498773983225295 0.09415635466575623 L 0.6026712121583276 8.094156265258789 C 0.42011969124295534 8.176430359482765 0.2662851184734585 8.306779980659485 0.15946317078036187 8.469701766967773 C 0.05264122308726524 8.632623553276062 -0.0026728659169671194 8.82126148045063 0.00009931693894343188 9.013181686401367 C 0.0028714997948539834 9.205101892352104 0.06361312637590566 9.392227962613106 0.17510060714033293 9.5523042678833 C 0.2865880879047602 9.712380573153496 0.4441297093019053 9.838671557605267 0.6289888589289601 9.916156768798828 L 0.6289888589289601 9.916156768798828 Z M 6.313633001335647 19.00015640258789 L 11.34138503351969 16.68415641784668 L 6.313633001335647 14.456155776977539 L 6.313633001335647 19.00015640258789 Z" fill="rgb(0,0,0)"/>
        </svg>