<svg 
          width="26" 
          height="26" fill="none" 
          xmlns="http://www.w3.org/2000/svg">
          <path d="M 5.004999876022339 19.630000495910647 C 6.109999907016754 18.785000526905062 7.3449998140335095 18.118533697724345 8.709999752044679 17.630600357055666 C 10.074999690055849 17.143533697724344 11.505000030994415 16.900000000000002 13 16.900000000000002 C 14.494999969005585 16.900000000000002 15.925000309944153 17.143533697724344 17.290000247955323 17.630600357055666 C 18.655000185966493 18.118533697724345 19.889999473094942 18.785000526905062 20.994999504089357 19.630000495910647 C 21.75333281159401 18.741667157411577 22.343967309594156 17.734166181087495 22.766900634765626 16.607499504089358 C 23.188967317342758 15.48083282709122 23.400000000000002 14.278333353996278 23.400000000000002 13 C 23.400000000000002 10.118333292007446 22.387300097942354 7.664366579055786 20.36190013885498 5.63809986114502 C 18.335633420944216 3.612699902057648 15.881666707992554 2.6 13 2.6 C 10.118333292007446 2.6 7.6647997260093685 3.612699902057648 5.639399766921997 5.63809986114502 C 3.6131330490112306 7.664366579055786 2.6 10.118333292007446 2.6 13 C 2.6 14.278333353996278 2.8114665657281876 15.48083282709122 3.2343998908996583 16.607499504089358 C 3.6564665734767914 17.734166181087495 4.246666568517685 18.741667157411577 5.004999876022339 19.630000495910647 Z M 13 14.3 C 11.721666646003722 14.3 10.64353342652321 13.861466526985168 9.765600109100342 12.984399890899658 C 8.888533473014832 12.10646657347679 8.450000000000001 11.028333353996278 8.450000000000001 9.75 C 8.450000000000001 8.471666646003722 8.888533473014832 7.393533426523209 9.765600109100342 6.515600109100342 C 10.64353342652321 5.6385334730148315 11.721666646003722 5.2 13 5.2 C 14.278333353996278 5.2 15.356466573476792 5.6385334730148315 16.23439989089966 6.515600109100342 C 17.11146652698517 7.393533426523209 17.55 8.471666646003722 17.55 9.75 C 17.55 11.028333353996278 17.11146652698517 12.10646657347679 16.23439989089966 12.984399890899658 C 15.356466573476792 13.861466526985168 14.278333353996278 14.3 13 14.3 Z M 13 26 C 11.201666676998139 26 9.511667203903198 25.658533209562304 7.930000495910645 24.97559986114502 C 6.348333787918091 24.293533194065095 4.972500216960907 23.367500960826874 3.8025002479553223 22.19750099182129 C 2.6325002789497374 21.027501022815706 1.7064668059349062 19.65166621208191 1.0244001388549806 18.069999504089356 C 0.34146679043769845 16.488332796096802 0 14.798333323001861 0 13 C 0 11.201666676998139 0.34146679043769845 9.511667203903198 1.0244001388549806 7.930000495910645 C 1.7064668059349062 6.348333787918091 2.6325002789497374 4.972500216960907 3.8025002479553223 3.8025002479553223 C 4.972500216960907 2.6325002789497374 6.348333787918091 1.7060332715511324 7.930000495910645 1.0230999231338502 C 9.511667203903198 0.34103325605392465 11.201666676998139 0 13 0 C 14.798333323001861 0 16.488332796096802 0.34103325605392465 18.069999504089356 1.0230999231338502 C 19.65166621208191 1.7060332715511324 21.027501022815706 2.6325002789497374 22.19750099182129 3.8025002479553223 C 23.367500960826874 4.972500216960907 24.293533194065095 6.348333787918091 24.97559986114502 7.930000495910645 C 25.658533209562304 9.511667203903198 26 11.201666676998139 26 13 C 26 14.798333323001861 25.658533209562304 16.488332796096802 24.97559986114502 18.069999504089356 C 24.293533194065095 19.65166621208191 23.367500960826874 21.027501022815706 22.19750099182129 22.19750099182129 C 21.027501022815706 23.367500960826874 19.65166621208191 24.293533194065095 18.069999504089356 24.97559986114502 C 16.488332796096802 25.658533209562304 14.798333323001861 26 13 26 Z M 13 23.400000000000002 C 14.14833332300186 23.400000000000002 15.231666630506515 23.232301113009452 16.25 22.89690113067627 C 17.268333369493483 22.56063446700573 18.199999535083773 22.078333315253257 19.044999504089358 21.45 C 18.199999535083773 20.82166668474674 17.268333369493483 20.33936553299427 16.25 20.003098869323733 C 15.231666630506515 19.66769888699055 14.14833332300186 19.5 13 19.5 C 11.85166667699814 19.5 10.768333369493485 19.66769888699055 9.75 20.003098869323733 C 8.731666630506515 20.33936553299427 7.799999845027924 20.82166668474674 6.954999876022339 21.45 C 7.799999845027924 22.078333315253257 8.731666630506515 22.56063446700573 9.75 22.89690113067627 C 10.768333369493485 23.232301113009452 11.85166667699814 23.400000000000002 13 23.400000000000002 Z M 13 11.700000000000001 C 13.563333338499069 11.700000000000001 14.029166421294214 11.515833082795144 14.397499752044679 11.147499752044679 C 14.765833082795144 10.779166421294214 14.950000000000001 10.313333338499069 14.950000000000001 9.75 C 14.950000000000001 9.186666661500931 14.765833082795144 8.720833578705788 14.397499752044679 8.352500247955323 C 14.029166421294214 7.984166917204858 13.563333338499069 7.800000000000001 13 7.800000000000001 C 12.436666661500931 7.800000000000001 11.970833578705788 7.984166917204858 11.602500247955323 8.352500247955323 C 11.234166917204858 8.720833578705788 11.05 9.186666661500931 11.05 9.75 C 11.05 10.313333338499069 11.234166917204858 10.779166421294214 11.602500247955323 11.147499752044679 C 11.970833578705788 11.515833082795144 12.436666661500931 11.700000000000001 13 11.700000000000001 Z" fill="rgb(40.00000141561031,111.00000098347664,108.00000116229057)"/>
        </svg>