<svg 
          width="26" 
          height="26" fill="none" 
          xmlns="http://www.w3.org/2000/svg">
          <path d="M 25.450698113981254 0.3968135904986604 C 25.282894279147733 0.2443326164043659 25.08680259197908 0.13603395648824868 24.876838450525927 0.07987791379153147 C 24.666874309072774 0.023721871094814266 24.448375580622578 0.02113643932640987 24.237405058268084 0.07231217157607418 L 13.000002754967179 2.9117022738469336 L 1.7625990741826831 0.039862033914836406 C 1.5482864107455798 -0.014509273529147625 1.325756067629782 -0.013243442760191085 1.111944442325239 0.04356250891397048 C 0.8981328170206959 0.10036846058813205 0.6986753993629562 0.21121746804346225 0.5287529732453481 0.3676732202619083 C 0.35883054712774004 0.5241289724803544 0.22292170987912155 0.7220677805594936 0.13137033014520053 0.9464242365252159 C 0.0398189504112795 1.170780692490938 -0.004961868790066602 1.4156415216249167 0.00043603572953751935 1.662370697027634 L 0.00043603572953751935 21.4569772096351 C -0.007724273909965488 21.832039557214202 0.10007747583602392 22.198686259289868 0.3054914876679722 22.494512103747322 C 0.5109054994999205 22.790337948204776 0.801236144501843 22.997059430756114 1.127065079689015 23.07948579114964 L 12.682235198117636 26 L 13.317770311816721 26 L 24.87293741699999 23.07948579114964 C 25.19876635218716 22.997059430756114 25.48909869752039 22.790337948204776 25.694512709352338 22.494512103747322 C 25.899926721184286 22.198686259289868 26.007727779792347 21.832039557214202 25.999567470152844 21.4569772096351 L 25.999567470152844 1.662370697027634 C 25.998567248160217 1.4186614792330263 25.948704717246855 1.1783361110155592 25.853683693105555 0.9592416668640522 C 25.758662668964256 0.7401472227125453 25.620925674237153 0.5479123263522097 25.450698113981254 0.3968135904986604 Z M 2.8892284385937415 3.690506230502712 L 11.555606522448372 5.880892660812862 L 11.555606522448372 22.349355691592287 L 2.8892284385937415 20.158968487609755 L 2.8892284385937415 3.690506230502712 Z M 23.11077500511523 20.158968487609755 L 14.444398987485984 22.349355691592287 L 14.444398987485984 5.880892660812862 L 23.11077500511523 3.690506230502712 L 23.11077500511523 20.158968487609755 Z" fill="rgb(40.00000141561031,111.00000098347664,108.00000116229057)"/>
        </svg>