<svg 
          width="1.0384975671768188" 
          height="1.0023329257965088" fill="none" 
          xmlns="http://www.w3.org/2000/svg">
          <path d="M 0.4365662419883579 0.8440767168226846 L 0.4365662419883579 0.8902314237506431 C 0.43337443240580026 0.9275312527057004 0.43337443240580026 0.9650330968414516 0.4365662419883579 1.0023329257965088 C 0.4365662419883579 0.8440702806364693 0.4365662419883579 1.0023365418522756 0.4365662419883579 0.8308853453854591 L 0.4365662419883579 0.8638587429444127 C 0.4365662419883579 0.9429900655244324 0.4365662419883579 0.7517528141781042 0.4365662419883579 0.7781299217047775 C 0.4365662419883579 0.8045070292314507 0.4365662419883579 0.7781311303321126 0.4365662419883579 0.8308853453854591 L 0.4365662419883579 0.751757240898547 C 0.4365662419883579 0.751757240898547 0.4365662419883579 0.7517491907526586 0.4365662419883579 0.78472057638928 L 0.4365662419883579 0.7451565241458239 C 0.4365662419883579 0.7847221854358337 0.4365662419883579 0.824284628632736 0.4365662419883579 0.824284628632736 C 0.4365662419883579 0.9759530030525062 0.4365662419883579 0.7781295188289992 0.4365662419883579 0.8704493976289152 C 0.43297822804819475 0.9077313673955046 0.43297822804819475 0.9452689299081912 0.4365662419883579 0.9825508996747807 C 0.4327893264753614 0.9232621279325094 0.4327893264753614 0.8637913742532793 0.4365662419883579 0.804502602511008 L 0.4365662419883579 0.8440767168226846 L 0.4365662419883579 0.9166141666250942 C 0.43990019901573985 0.8859306191845389 0.43990019901573985 0.8549681760732913 0.4365662419883579 0.824284628632736 C 0.4401542559285211 0.8615665983993255 0.4401542559285211 0.8991142229802327 0.4365662419883579 0.9363961927468222 C 0.4365662419883579 0.9363961927468222 0.4365662419883579 0.8440738991487957 0.4365662419883579 0.8308853453854591 C 0.4365662419883579 0.8176967916221225 0.4365662419883579 0.8308805157892379 0.4365662419883579 0.78472057638928 C 0.4394800506898166 0.8066055280944835 0.4394800506898166 0.8287824198019835 0.4365662419883579 0.8506673715071871 L 0.4365662419883579 0.7913212931420031 C 0.43328308827350076 0.760635031203063 0.43328308827350076 0.7296880791568056 0.4365662419883579 0.6990018172178655 C 0.4365662419883579 0.6198704946378457 0.4365662419883579 0.8176988084575739 0.4365662419883579 0.6990018172178655 C 0.4365662419883579 0.6990018172178655 0.4365662419883579 0.7451621594936018 0.4365662419883579 0.771539267020275 C 0.4365662419883579 0.7979163745469482 0.4365662419883579 0.7253777161172036 0.4365662419883579 0.6462463935371838 L 0.4365662419883579 0.6924011004651424 C 0.42995845767681623 0.6332354023600422 0.42995845767681623 0.5735285634746904 0.4365662419883579 0.5143628653695902 C 0.4339282515632913 0.49466743665945373 0.4339282515632913 0.474702153646322 0.4365662419883579 0.45500672493618555 L 0.4365662419883579 0.45500672493618555 C 0.4405105059297108 0.49227085025366507 0.4405105059297108 0.5298441016645717 0.4365662419883579 0.5671082269820512 L 0.4365662419883579 0.5209535200540927 C 0.43327714293959535 0.5670552291647193 0.43327714293959535 0.6133259937955622 0.4365662419883579 0.6594277029061888 L 0.4365662419883579 0.6924011004651424 L 0.4365662419883579 0.7385658694613215 C 0.43126866671954067 0.6595226636750209 0.43126866671954067 0.5802146997186653 0.4365662419883579 0.5011714939323647 C 0.4365662419883579 0.5605199895522189 0.4365662419883579 0.6000820274167832 0.4365662419883579 0.6726190743434144 C 0.4365662419883579 0.5934877517633946 0.4365662419883579 0.7055904599800358 0.4365662419883579 0.6726190743434144 C 0.4398968357839031 0.6922625824376142 0.4398968357839031 0.7123216446143986 0.4365662419883579 0.7319651527085984 L 0.4365662419883579 0.6594277029061888 C 0.4365662419883579 0.718776198526043 0.4365662419883579 0.705591667379091 0.4365662419883579 0.7253744980240959 C 0.4365662419883579 0.6132717873508953 0.4365662419883579 0.6462443816148516 0.4365662419883579 0.6132729959782303 C 0.4365662419883579 0.5803016103416089 0.4365662419883579 0.6924047226623082 0.4365662419883579 0.6858104457806399 C 0.4365662419883579 0.6792161688989715 0.4365662419883579 0.5473266037361015 0.4365662419883579 0.6198636506627327 C 0.4365662419883579 0.5868922650261114 0.4365662419883579 0.6198636506627327 0.4365662419883579 0.6198636506627327 C 0.4365662419883579 0.6198636506627327 0.4365662419883579 0.6198676794205163 0.4365662419883579 0.5209535200540927 C 0.4365662419883579 0.5209535200540927 0.4365662419883579 0.6396448722611838 0.4365662419883579 0.6594277029061888 L 0.4365662419883579 0.3297138514530944 C 0.4425567742305614 0.4417370187256644 0.4425567742305614 0.5540052523863419 0.4365662419883579 0.6660284196589119 C 0.42994747873775685 0.6223141671502308 0.42994747873775685 0.5778591439999994 0.4365662419883579 0.5341448914913183 C 0.4365662419883955 0.633059050857742 0.4365662419883579 0.5868970970788921 0.4365662419883579 0.6660284196589119 C 0.4332063804678262 0.6177283893849242 0.4332063804678262 0.5692535503280803 0.4365662419883579 0.5209535200540927 C 0.4365662419883955 0.5209535200540927 0.4365662419883579 0.6528398658955753 0.4365662419883579 0.6660284196589119 L 0.4365662419883579 0.5341448914913183 C 0.4301091122285275 0.582288694399447 0.4301091122285275 0.6310759881880087 0.4365662419883579 0.6792197910961374 C 0.4365662419883579 0.6792197910961374 0.4365662419883579 0.4945772170506964 0.4365662419883579 0.5011714939323647 C 0.43304994475498815 0.5626681625074121 0.43304994475498815 0.6243137772055924 0.4365662419883579 0.6858104457806399 C 0.4365662419883579 0.6198676745073971 0.4365662419883579 0.36268604038471286 0.4365662419883579 0.3099318253313664 C 0.4365662419883579 0.41544025543805935 0.4365662419883579 0.6264611493223482 0.4365662419883579 0.705592471902368 C 0.4365662419883579 0.7847237944823877 0.4365662419883579 0.7517508010274923 0.4365662419883579 0.7451565241458239 C 0.4404866103199789 0.7647463220204007 0.4404866103199789 0.7849128046364312 0.4365662419883579 0.804502602511008 L 0.4365662419883579 0.804502602511008 C 0.4365662419883579 0.7253712799309883 0.4365662419883579 0.7253704741794316 0.4365662419883579 0.6594277029061888 L 0.4365662419883579 0.7451565241458239 C 0.42757036717425073 0.6751034323962949 0.42757036717425073 0.6041979832408473 0.4365662419883579 0.5341448914913183 C 0.4397294916677773 0.5890519567893824 0.4397294916677773 0.6440947519198014 0.4365662419883579 0.6990018172178655 C 0.43656624198832034 0.6990018172178655 0.4365662419883579 0.6462476021645189 0.4365662419883579 0.6990018172178655 L 0.4365662419883579 0.7451565241458239 C 0.4365662419883579 0.7451565241458239 0.4365662419883579 0.6396460796602391 0.4365662419883579 0.7121831265868703 C 0.4365662419883579 0.7847201735135015 0.4365662419883579 0.81109848966751 0.4365662419883579 0.764938550267552 C 0.4365662419883579 0.718778610867594 0.4365662419883579 0.40225733947906017 0.4365662419883579 0.33631456820581745 L 0.4365662419883579 0.4681980963734111 C 0.4365662419883579 0.5341408676466538 0.4365662419883579 0.6330526048452881 0.4365662419883579 0.6924011004651424 C 0.43323564819281274 0.6727575923709426 0.43323564819281274 0.6526985301941581 0.4365662419883579 0.6330550220999583 C 0.4365662419883579 0.6330550220999583 0.4365662419883579 0.6989953773468107 0.4365662419883579 0.6924011004651424 C 0.4365662419883579 0.685806823583474 0.4365662419883579 0.6924071386886986 0.4365662419883579 0.6264643674154559 C 0.4365662419883579 0.5605215961422131 0.4365662419883579 0.6264643674154559 0.4365662419883579 0.6264643674154559 C 0.4298778750239482 0.5628940579042127 0.4298778750239482 0.4987950083257008 0.4365662419883579 0.4352246988144576 C 0.43235681098014817 0.4525590703406498 0.43235681098014817 0.4706457509689469 0.4365662419883579 0.4879801224951391 C 0.4365662419883579 0.48798012249512035 0.4365662419883579 0.5341448914913183 0.4365662419883579 0.5341448914913183 C 0.4365662419883579 0.5341448914913183 0.4365662419883579 0.5737109556571064 0.4365662419883579 0.6066823412937278 C 0.4365662419883579 0.6396537269303492 0.4365662419883579 0.5671082269820512 0.4365662419883579 0.5671082269820512 C 0.4365662419883579 0.5671082269820512 0.4365662419883579 0.5671078241062728 0.4365662419883579 0.6594277029061888 C 0.43184140147647543 0.6288346575787476 0.43184140147647543 0.5977012723094924 0.4365662419883579 0.5671082269820512 C 0.4365662419883579 0.49457118005542 0.4365662419883579 0.5671082269820512 0.4365662419883579 0.5671082269820512 C 0.43244002008945653 0.4858308244356381 0.43244002008945653 0.40440059931500505 0.4365662419883579 0.3231231967685919 C 0.4365662419883579 0.3231231967686107 0.4365662419883579 0.38907079640977593 0.4365662419883579 0.369287965764771 C 0.4365662419883579 0.3495051351197661 0.4365662419883579 0.20442500181466766 0.4365662419883579 0.2703677730879104 C 0.4365662419883579 0.3363105443611531 0.4365662419883579 0.39566547616722264 0.4365662419883579 0.44182541556718063 C 0.4365662419883579 0.48798535496713863 0.4365662419883579 0.402251301255504 0.4365662419883579 0.402251301255504 L 0.4365662419883579 0.4352246988144576 C 0.4365662419883579 0.4352246988144576 0.43656462798205475 0.435228722659122 0.476252247062992 0.5011714939323647 C 0.47952054175531633 0.4771022455626944 0.47952054175531633 0.4527032924996254 0.476252247062992 0.4286340441299551 L 0.476252247062992 0.4286340441299551 C 0.47269826155037686 0.3979627328128877 0.47269826155037686 0.36698587952288486 0.476252247062992 0.33631456820581745 C 0.476252247062992 0.2967489069158076 0.476252247062992 0.24399066556123714 0.476252247062992 0.2703677730879104 L 0.476252247062992 0.34290522289031994 C 0.476252247062992 0.34290522289031994 0.476252247062992 0.29674528349036194 0.476252247062992 0.34290522289031994 C 0.476252247062992 0.38906516229027793 0.476252247062992 0.4352251016902359 0.476252247062992 0.34290522289031994 L 0.476252247062992 0.29675051596236146 C 0.476252247062992 0.2571848546723516 0.476252247062992 0.1846482093932189 0.476252247062992 0.20443104003822385 C 0.476252247062992 0.2242138706832288 0.476252247062992 0.20443063716244547 0.476252247062992 0.13189359023581426 C 0.476252247062992 0.230807749602238 0.476252247062992 0.1318859454222638 0.476252247062992 0.23739437552895679 C 0.4802410535740989 0.19572527769106954 0.4802410535740989 0.15378066195197349 0.476252247062992 0.11211156411408624 C 0.476252247062992 0.11211156411408624 0.476252247062992 0.15826345336815578 0.476252247062992 0.14507489960481917 C 0.47689373956650044 0.156056057673543 0.47689373956650044 0.16706713909504892 0.476252247062992 0.17804829716377274 C 0.476252247062992 0.23080251221711923 0.476252247062992 0.23080935619223217 0.476252247062992 0.2571864637189054 C 0.476252247062992 0.2835635712455786 0.476252247062992 0.2571816341226843 0.476252247062992 0.2110216947227263 L 0.476252247062992 0.25058574696618235 C 0.47345825368822775 0.2110691087800325 0.47345825368822775 0.17141022842196413 0.476252247062992 0.13189359023581426 C 0.476252247062992 0.13189359023581426 0.476252247062992 0.0923279289458044 0.476252247062992 0.13189359023581426 C 0.476252247062992 0.17145925152582414 0.476252247062992 0.1912420858556685 0.476252247062992 0.13189359023581426 C 0.476252247062992 0.13189359023581426 0.47625386106929524 0.21761918846922249 0.4365662419883579 0.13189359023581426 L 0.4365662419883579 0.08572882123963514 C 0.4365662419883579 0.08572882123963514 0.4365662419883579 0.046163159949625276 0.4365662419883579 0.08572882123963514 C 0.4365662419883579 -0.03956244074034258 0.4365662419883579 0.08573405371163463 0.4365662419883579 0.03957411431167664 L 0.4365662419883579 0.09892019267686068 L 0.4365662419883579 0.15167561635754226 C 0.4365662419883579 0.19783555575750025 0.4365662419883579 0.1187042307209209 0.4365662419883579 0.15167561635754226 C 0.4365662419883579 0.18464700199416362 0.4365662419883579 0.15167561635754226 0.4365662419883579 0.15167561635754226 C 0.4365662419883579 0.03957290568434155 0.43657431694813736 0.23740121459095048 0.4035012998152904 0.15167561635754226 L 0.4035012998152904 0.09892019267686068 C 0.4035012998152904 0.09892019267686068 0.4035012998152904 0.09891415445330447 0.4035012998152904 0.1648569257265472 C 0.4035012998152904 0.07913132749313898 0.4035012998152904 0.1978343520432844 0.4035012998152904 0.09892019267686068 C 0.4035012998152904 0.15167440773020718 0.4035012998152904 0.1384802161625331 0.4035012998152904 0.23739437552895679 C 0.39992215151318544 0.19790915919695973 0.39992215151318544 0.15818743513058575 0.4035012998152904 0.11870221879858871 C 0.4035012998152904 0.20442781703199692 0.4035012998152904 0.1516723982644346 0.4035012998152904 0.23080372084445433 L 0.4035012998152904 0.18464901391649582 C 0.4035012998152904 0.18464901391649582 0.4035012998152904 0.25059178518973857 0.4035012998152904 0.18464901391649582 C 0.4035012998152904 0.1187062426432531 0.36381610174380796 0.1846457909102689 0.3439722922033393 0.09892019267686068 C 0.3439722922033393 0.23080573522334613 0.3439722922033393 0.039570085553893006 0.3439722922033393 0.13848424492031672 L 0.3439722922033393 0.06594679511790713 C 0.3439722922033393 0.09891818075452849 0.3439722922033393 0.013190968561447178 0.3439722922033393 0.10551084736136315 C 0.34050589825836874 0.08366574842294254 0.34050589825836874 0.06141921325009725 0.3439722922033393 0.03957411431167664 C 0.3439722922033017 0.0395741143116579 0.3439722922033393 0.03957411431167664 0.3439722922033393 0.03957411431167664 L 0.3439722922033393 0 C 0.33659990813557084 0.06573797772361388 0.33659990813557084 0.13209234556188687 0.3439722922033393 0.19783032328550076 C 0.3439722922033017 0.15167038388554277 0.3439722922033393 0.15826466199549089 0.3439722922033393 0.19783032328550076 C 0.3406215165526419 0.1737666832414525 0.3406215165526419 0.14935651352713944 0.3439722922033393 0.12529287348309118 C 0.3439722922033393 0.12529287348309118 0.3439722922033393 0.08572922411541352 0.3439722922033393 0.15826627104204474 C 0.3439722922033393 0.23080331796867598 0.3439722922033393 0.15826627104204474 0.3439722922033393 0.15826627104204474 C 0.3439722922033393 0.24399186927545297 0.3439722922033393 0.15826627104204474 0.3439722922033393 0.15826627104204474 C 0.3439722922033393 0.09232349976880201 0.3439722922033393 0.15826788008859857 0.3439722922033393 0.11870221879858871 L 0.3439722922033393 0.17145764247927028 C 0.3439722922033393 0.29015463371897876 0.3439722922033393 0.09892059555263906 0.3439722922033393 0.17145764247927028 L 0.3439722922033393 0.20443104003822385 C 0.3439722922033393 0.2439967013282337 0.3439722922033393 0.04616557351945603 0.3439722922033393 0.026382742874451096 C 0.3439722922033393 -0.04615430405218013 0.3439722922033393 0.09892301035074962 0.3439722922033393 0.11211156411408624 C 0.3461123127092524 0.07697444112095882 0.3461123127092524 0.041737839745850505 0.3439722922033393 0.006600716752723081 C 0.3439722922033393 -0.026370668883898284 0.3439722922033393 0.1384874630134244 0.3439722922033393 0.05935614043340466 C 0.3439722922033393 0.05935614043340466 0.3439722922033393 0.11869779207814593 0.3439722922033393 0.14507489960481917 C 0.3439722922033393 0.17145200713149242 0.3439722922033393 0.03297218893161846 0.3439722922033393 0.14507489960481917 C 0.3380791590812041 0.17556778853982322 0.3380791590812041 0.20690148659395274 0.3439722922033393 0.23739437552895679 C 0.3439722922033393 0.04616034718885559 0.34396018099573594 0.32972110321710496 0.310887163862889 0.15167561635754226 C 0.310887163862889 0.15167561635754226 0.310887163862889 0.15167601923332064 0.310887163862889 0.22421306615995185 C 0.310887163862889 0.18464740486994197 0.310887163862889 0.19123926572521993 0.310887163862889 0.2835591445251359 L 0.310887163862889 0.22421306615995185 C 0.310887163862889 0.22421306615995185 0.310887163862889 0.13848746792654362 0.310887163862889 0.22421306615995185 C 0.310887163862889 0.29015583743319456 0.2712011587882549 0.06595162962724749 0.2712011587882549 0.27696848984063344 L 0.2712011587882549 0.3297138514530944 C 0.2712011587882549 0.3297138514530944 0.2712011587882549 0.41544106364617567 0.2712011587882549 0.45500672493618555 C 0.2712011587882549 0.4945723862261954 0.2712011587882549 0.3890635520154443 0.2712011587882549 0.382469275133776 C 0.2712011587882549 0.276960845027083 0.2712011587882549 0.3429048200145416 0.2712011587882549 0.2703677730879104 C 0.2712011587882549 0.19783072616127917 0.22490862426117816 0.2176123494072288 0.1984502115405533 0.2176123494072288 L 0.1984502115405533 0.3033411706468639 L 0.1984502115405533 0.23739437552895679 C 0.1984502115405533 0.23739437552895679 0.1984502115405533 0.28356196219902485 0.1984502115405533 0.29675051596236146 C 0.1984502115405533 0.30993906972569807 0.1984502115405533 0.19783032328550076 0.1984502115405533 0.19783032328550076 C 0.1984502115405533 0.23080170892212212 0.1984502115405533 0.2637771184034079 0.1984502115405533 0.2637771184034079 C 0.20255254029385453 0.2442056550615861 0.20255254029385453 0.22400250338004565 0.1984502115405533 0.20443104003822385 L 0.1984502115405533 0.20443104003822385 L 0.1984502115405533 0.2703677730879104 C 0.1984502115405533 0.30333915872453177 0.1984502115405533 0.27036817596368873 0.1984502115405533 0.34290522289031994 C 0.1984502115405533 0.2242082316506115 0.15875774674450882 0.30333915872453177 0.1521431435643526 0.2703677730879104 C 0.14552854038419638 0.23739638745128902 0.1521431435643526 0.3165261022130347 0.1521431435643526 0.3099318253313664 C 0.1521431435643526 0.30333754844969807 0.1521431435643526 0.40225854564983565 0.1521431435643526 0.38906999188649904 C 0.1521431435643526 0.23740161746672883 0.1521431435643526 0.323124405395927 0.1521431435643526 0.2110216947227263 C 0.1521431435643526 0.2835587416493575 0.1521431435643526 0.21102330622583973 0.1521431435643526 0.33631456820581745 C 0.1521431435643526 0.33631456820581745 0.1521431435643526 0.27696647791830126 0.1521431435643526 0.24399509228167987 C 0.1521431435643526 0.2110237066450585 0.15213829908131124 0.20442943099167 0.10583607558815186 0.24399509228167987 C 0.10965522323936037 0.27244346525139235 0.10965522323936037 0.3012654784833819 0.10583607558815186 0.3297138514530944 L 0.10583607558815186 0.22421306615995185 C 0.10583607558815186 0.22421306615995185 0.10583607558815186 0.3429048200145416 0.10583607558815186 0.2703677730879104 L 0.10583607558815186 0.3231231967685919 C 0.10583607558815186 0.2242090374021682 0.046302223493159385 0.4088528237597838 0 0.22421306615995185 L 0 0.34290522289031994 L 0 0.2703677730879104 C 0 0.3429048200145416 0 0.27037461706302335 0 0.34950593964304305 C 0 0.4352315378764513 0 0.5407343375484857 0 0.6528370482216863 C 0 0.5539228888552626 0 0.791316861508441 0 0.6528370482216863 L 0 0.7121831265868703 C 0 0.6660231871869123 0 0.6594289115335239 0 0.7121831265868703 C 0 0.7121831265868703 0.000004844483041339942 0.7451621594936018 0.046307067976200725 0.771539267020275 L 0.046307067976200725 0.7187838433395934 C 0.046307067976200725 0.7187838433395934 0.046307067976200725 0.7187822342930397 0.046307067976200725 0.7583478955830495 C 0.046307067976200725 0.7979135568730593 0.046307067976200725 0.7583418622726125 0.046307067976200725 0.6594277029061888 C 0.046307067976200725 0.7715304135793895 0.046298993016421236 0.6594293144093022 0.07937201014926819 0.78472057638928 L 0.07937201014926819 0.7253744980240959 C 0.08096094622191981 0.7517278235970476 0.08096094622191981 0.7781492769380564 0.07937201014926819 0.804502602511008 C 0.07937201014926819 0.7715312168743866 0.11244987176515649 0.8045050197656781 0.1256790781254689 0.7451565241458239 C 0.1256790781254689 0.6924023090924774 0.1256790781254689 0.7451565241458239 0.1256790781254689 0.7451565241458239 C 0.1256790781254689 0.7451565241458239 0.1256790781254689 0.705588849705202 0.1256790781254689 0.7121831265868703 C 0.1256790781254689 0.7187774034685387 0.1256790781254689 0.7715312168743866 0.1256790781254689 0.804502602511008 C 0.13384497360741127 0.758701591037738 0.13384497360741127 0.7118294311321819 0.1256790781254689 0.6660284196589119 L 0.1256790781254689 0.7121831265868703 C 0.12086812575706408 0.688241953409766 0.12086812575706408 0.6635868499615651 0.1256790781254689 0.6396456767844608 C 0.1256790781254689 0.6396456767844608 0.1256790781254689 0.705597301498589 0.1256790781254689 0.751757240898547 C 0.1256790781254689 0.797917180298505 0.12569118933307227 0.6594357505955176 0.1587642064659192 0.7913212931420031 C 0.1587642064659192 0.6726243019022946 0.1587642064659192 0.7253753025473729 0.1587642064659192 0.705592471902368 C 0.1587642064659192 0.685809641257363 0.1587642064659192 0.6132758136521193 0.1587642064659192 0.6264643674154559 C 0.1587642064659192 0.6396529211787925 0.1587642064659192 0.7781335439019433 0.1587642064659192 0.771539267020275 C 0.1587642064659192 0.771539267020275 0.1587642064659192 0.725379327620317 0.1587642064659192 0.771539267020275 C 0.16215056849147025 0.7408585642757644 0.16215056849147025 0.709900493840648 0.1587642064659192 0.6792197910961374 L 0.1587642064659192 0.6792197910961374 C 0.1587642064659192 0.6792197910961374 0.1587642064659192 0.5473274094876583 0.1587642064659192 0.6000816245410048 C 0.1587642064659192 0.6528358395943512 0.1587642064659192 0.6396484944583497 0.1587642064659192 0.6528370482216863 C 0.1587642064659192 0.6660256019850229 0.1587642064659192 0.6528370482216863 0.1587642064659192 0.6528370482216863 C 0.1587642064659192 0.6528370482216863 0.1587642064659192 0.6528402712279133 0.1587642064659192 0.7385658694613215 C 0.1587642064659192 0.8242914676947297 0.1587642064659192 0.6726251076538513 0.1587642064659192 0.771539267020275 C 0.1587642064659192 0.6462480050402972 0.1587642064659192 0.7715324230451621 0.1587642064659192 0.6924011004651424 L 0.1587642064659192 0.78472057638928 C 0.1587642064659192 0.7253720807694257 0.1587642064659192 0.8374747914426264 0.1587642064659192 0.78472057638928 C 0.1587642064659192 0.7319663613359335 0.1587642064659192 0.7187854523861472 0.1587642064659192 0.6792197910961374 C 0.1587642064659192 0.6396541298061276 0.1587561315061397 0.8176984006686763 0.19182914863898667 0.7913212931420031 C 0.22490216577183364 0.7649441856153298 0.19182914863898667 0.7583487001063265 0.19182914863898667 0.7385658694613215 C 0.19182914863898667 0.7187830388163166 0.19182914863898667 0.7385634522066513 0.19182914863898667 0.7979119478265055 C 0.19182914863898667 0.8572604434463598 0.19182914863898667 0.7385638575389893 0.19182914863898667 0.705592471902368 C 0.19182914863898667 0.6726210862657466 0.19182914863898667 0.7055876423061468 0.19182914863898667 0.6594277029061888 L 0.19182914863898667 0.7121831265868703 C 0.19182914863898667 0.7451545122234917 0.19182914863898667 0.5934857373845028 0.19182914863898667 0.6396456767844608 L 0.19182914863898667 0.7583478955830495 C 0.19182914863898667 0.7121879561830915 0.19182914863898667 0.7583478955830495 0.19182914863898667 0.7583478955830495 L 0.19182914863898667 0.6594277029061888 C 0.19182914863898667 0.6594277029061888 0.19182914863898667 0.7121867487840363 0.19182914863898667 0.705592471902368 C 0.19182914863898667 0.6989981950206996 0.19182914863898667 0.7847237944823877 0.19182914863898667 0.705592471902368 L 0.19182914863898667 0.7583478955830495 C 0.19182914863898667 0.7979135568730593 0.19182914863898667 0.7583478955830495 0.19182914863898667 0.7583478955830495 L 0.19182914863898667 0.6792197910961374 L 0.19182914863898667 0.7319651527085984 C 0.19182914863898667 0.7319651527085984 0.19182914863898667 0.7319732028544869 0.19182914863898667 0.6990018172178655 L 0.19182914863898667 0.7583478955830495 C 0.19182914863898667 0.7583478955830495 0.19182914863898667 0.8176967916221225 0.19182914863898667 0.8308853453854591 C 0.19182914863898667 0.8440738991487957 0.19182914863898667 0.7451585360681561 0.19182914863898667 0.7781299217047775 C 0.19182914863898667 0.7781299217047775 0.19182914863898667 0.8440726929780202 0.19182914863898667 0.7781299217047775 L 0.19182914863898667 0.8572580261916896 C 0.19182914863898667 0.8572580261916896 0.19182914863898667 0.7517516055507691 0.19182914863898667 0.7253744980240959 C 0.19182914863898667 0.6989973904974227 0.19182914863898667 0.7913168664215603 0.19182914863898667 0.8176939739482335 C 0.19182914863898667 0.8440710814749067 0.19182914863898667 0.6924051243098067 0.19182914863898667 0.7583478955830495 C 0.19182914863898667 0.8242906668562923 0.4365662419883579 0.8374824399410162 0.4365662419883579 0.8440767168226846 Z M 0.5291803779407593 0.804502602511008 C 0.5291803779407593 0.804502602511008 0.5291803779407593 0.850662541910966 0.5291803779407593 0.804502602511008 C 0.5291803779407593 0.75834266311105 0.5225657747606032 0.7847197718660031 0.5291803779407593 0.804502602511008 L 0.5291803779407593 0.804502602511008 Z M 1.0318765042752522 0.2571864637189054 C 1.0318765042752522 0.2571864637189054 1.025261901095096 0.2439979099555688 1.0318765042752522 0.2571864637189054 L 1.0318765042752522 0.2571864637189054 Z M 1.0318765042752522 0.2571864637189054 C 1.0318765042752522 0.2571864637189054 1.0384975671768188 0.29015704360397004 1.0384975671768188 0.27696848984063344 L 1.0318765042752522 0.2571864637189054 Z M 0.14552208066278596 0.3231231967685919 C 0.14552208066278596 0.3231231967685919 0.1521431435643526 0.36268805353532485 0.1521431435643526 0.34290522289031994 L 0.14552208066278596 0.3231231967685919 Z" fill="rgb(55.00000052154064,71.00000336766243,79.00000289082527)"/>
        </svg>