<svg 
          width="20" 
          height="14.71875" fill="none" 
          xmlns="http://www.w3.org/2000/svg">
          <path d="M 19.58258901323591 2.2992188930511475 C 19.46873729782445 1.8539961576461792 19.24551608307021 1.447979360818863 18.93526349748884 1.121802806854248 C 18.62501091190747 0.7956262528896332 18.238609262875148 0.5607310719788074 17.81473159790039 0.44062507152557373 C 16.254463706697738 8.940696716308594e-8 10 0 10 0 C 10 0 3.7455356121063232 -8.940696716308594e-8 2.1852677209036693 0.43828117847442627 C 1.761206260749272 0.5579976662993431 1.3746085124356406 0.7927626371383667 1.0642986638205392 1.1189993619918823 C 0.7539888152054377 1.445236086845398 0.5308911630085537 1.851459726691246 0.4174106461661203 2.296875 C -8.514949251248183e-8 3.9375 0 7.359375 0 7.359375 C 0 7.359375 -8.514949251248183e-8 10.781250536441803 0.4174106461661203 12.41953182220459 C 0.6473213647093092 13.324219286441803 1.3258927209036693 14.036719031631947 2.1852677209036693 14.278125286102295 C 3.7455356121063232 14.718750268220901 10 14.71875 10 14.71875 C 10 14.71875 16.254463706697738 14.718750268220901 17.81473159790039 14.278125286102295 C 18.676338706697738 14.036719031631947 19.352678294692723 13.324219286441803 19.58258901323591 12.41953182220459 C 19.999999744551523 10.781250536441803 20 7.359375 20 7.359375 C 20 7.359375 19.999999744551523 3.9375001788139343 19.58258901323591 2.2992188930511475 Z M 8.013392857142858 10.5 L 8.013392857142858 4.21875 L 13.191964285714286 7.3359375 L 8.013392857142858 10.5 Z" fill="rgb(0,0,0)"/>
        </svg>